# xmcd CD database file
#
# Track frame offsets:
#	150
#	15910
#	35586
#	48737
#	66489
#	83700
#	100699
#	115657
#	137949
#	155741
#	176191
#	190430
#	202509
#	221994
#	242014
#	258409
#	276798
#	294646
#
# Disc length: 4134 seconds
#
# Revision: 1
# Processed by: cddbd v1.5.2PL0 Copyright (c) Steve Scherf et al.
# Submitted via: CDex 1.70beta2
#
DISCID=0f102412
DTITLE=アニメ年鑑1986 - アニメ年鑑1986
DYEAR=2006
DGENRE=Anime
TTITLE0=愛少女ポリアンナ物語 し・あ・わ・せ カーニバル
TTITLE1=愛少女ポリアンナ物語 愛になりたい
TTITLE2=宇宙船サジタリウス スターダストボーイズ
TTITLE3=宇宙船サジタリウス 夢光年
TTITLE4=ドラゴンボール魔訶 不思議アドベンチャー!
TTITLE5=ドラゴンボール ロマンティックあげるよ
TTITLE6=魔法のアイドル パステルユーミ金のリボンでRockして
TTITLE7=魔法のアイドル パステルユーミフリージアの少年
TTITLE8=めぞん一刻 悲しみよこんにちは
TTITLE9=めぞん一刻 あした晴れるか
TTITLE10=あんみつ姫 恋はくえすちょん
TTITLE11=あんみつ姫 あんみつ大作戦
TTITLE12=ボスコアドベンチャー ときめきはForever
TTITLE13=ボスコアドベンチャー 晴れた日にも愛をください
TTITLE14=聖闘士星矢 ペガサス幻想
TTITLE15=聖闘士星矢 永遠ブルー
TTITLE16=がんばれ!キッカーズ 君は流れ星
TTITLE17=がんばれ!キッカーズ 銀河の少年
EXTD=YEAR: 2006
EXTT0=
EXTT1=
EXTT2=
EXTT3=
EXTT4=
EXTT5=
EXTT6=
EXTT7=
EXTT8=
EXTT9=
EXTT10=
EXTT11=
EXTT12=
EXTT13=
EXTT14=
EXTT15=
EXTT16=
EXTT17=
PLAYORDER=
